<svg width="408" height="408" viewBox="0 0 408 408" fill="none" xmlns="http://www.w3.org/2000/svg">
<g clip-path="url(#clip0_241_1917)">
<rect width="408" height="408" fill="white"/>
<ellipse cx="53.3028" cy="472.121" rx="56.1356" ry="37.333" transform="rotate(-44.5467 53.3028 472.121)" fill="#FFB143"/>
<g filter="url(#filter1_i_241_1917)">
<ellipse cx="372.295" cy="449.217" rx="56.1356" ry="37.333" transform="rotate(45.4533 372.295 449.217)" fill="#FFB143"/>
</g>
<g filter="url(#filter2_d_241_1917)">
<path d="M130.513 403.204C98.987 405.208 73.6384 429.914 70.8267 461.378L66.7419 507.089C65.0991 525.473 71.086 544.02 83.4104 557.759C92.348 567.723 102.377 577.523 116.99 586.1C142.306 600.96 283.196 598.78 312.914 586.1C342.633 573.42 353.981 556.926 361.345 530.515C370.264 498.53 361.137 458.467 351.348 429.343C343.175 405.03 318.866 391.232 293.267 392.859L130.513 403.204Z" fill="#FFB143"/>
</g>
<path d="M159.415 538.839C131.477 512.089 88.8073 459.657 73.6131 440.398C69.9969 435.814 69.4692 430.021 71.9685 424.745L77.1828 413.737C80.5976 406.528 88.1516 402.22 96.0949 402.951L298.543 421.581C316.373 423.222 322.243 446.36 307.352 456.303L181.447 540.366C174.533 544.982 165.42 544.588 159.415 538.839Z" fill="#EF612E"/>
<ellipse cx="71.5715" cy="136.928" rx="60.4696" ry="59.4843" transform="rotate(-5.16673 71.5715 136.928)" fill="#FFB143"/>
<ellipse cx="72.1786" cy="136.508" rx="26.8709" ry="24.1371" transform="rotate(-5.16673 72.1786 136.508)" fill="#FFD498"/>
<ellipse cx="338.869" cy="136.212" rx="60.4696" ry="59.4843" transform="rotate(-5.16673 338.869 136.212)" fill="#FFB143"/>
<ellipse cx="339.477" cy="135.792" rx="26.8709" ry="24.1371" transform="rotate(-5.16673 339.477 135.792)" fill="#FFD498"/>
<g filter="url(#filter3_di_241_1917)">
<ellipse cx="202.844" cy="294.416" rx="227.844" ry="184.367" fill="#FFB143"/>
</g>
<g filter="url(#filter4_i_241_1917)">
<path d="M306.309 105.096C306.309 161.231 261.218 146.922 205.596 146.922C149.973 146.922 104.882 154.627 104.882 105.096C104.882 70.1414 149.973 41.8054 205.596 41.8054C261.218 41.8054 306.309 70.1414 306.309 105.096Z" fill="#A0C06B"/>
</g>
<ellipse cx="205.596" cy="112.801" rx="100.714" ry="18.1615" fill="#759641"/>
<g filter="url(#filter5_i_241_1917)">
<circle cx="202.844" cy="100.142" r="30.8195" fill="#C8C8C8"/>
</g>
<g filter="url(#filter6_i_241_1917)">
<circle cx="203.394" cy="100.693" r="21.4636" fill="#FFF700"/>
</g>
<path d="M217.152 41.4837C217.152 49.0084 210.992 47.0904 203.393 47.0904C195.795 47.0904 189.635 48.1232 189.635 41.4837C189.635 36.7983 195.795 33 203.393 33C210.992 33 217.152 36.7983 217.152 41.4837Z" fill="#A0C06B"/>
<g filter="url(#filter7_d_241_1917)">
<path d="M91.2466 114.452C81.4783 114.452 72.6389 120.241 68.7356 129.196C62.4412 143.636 71.1778 160.184 86.6518 163.131L108.197 167.235C112.202 167.998 116.298 168.175 120.355 167.76L306.493 148.703C321.364 147.18 327.322 128.698 316.138 118.777C312.997 115.991 308.943 114.452 304.744 114.452H91.2466Z" fill="#A0C06B"/>
</g>
<path d="M209.086 249.359L191.008 251.856C186.877 252.427 185.219 257.505 188.216 260.403L197.255 269.144C199.37 271.188 202.784 270.975 204.627 268.683L213.666 257.445C216.503 253.919 213.569 248.739 209.086 249.359Z" fill="#0A0A0A"/>
<path d="M131.373 257.022C123.767 255.039 115.918 252.28 112.036 248.737C110.906 247.705 109.824 246.5 108.794 245.182C98.6563 232.2 102.814 213.684 114.504 202.079C119.766 196.855 125.772 191.581 131.849 187.648C149.484 176.235 169.358 171.122 190.186 168.386C211.013 165.649 234.191 167.667 255.127 176.091C261.131 178.506 266.814 181.754 271.867 185.158C286.251 194.848 291.952 214.203 282.188 228.537C281.123 230.1 279.99 231.538 278.792 232.776C274.488 237.224 265.553 241.083 257.431 243.891C246.819 247.56 235.279 246.213 225.061 241.556L223.493 240.842C207.258 233.444 188.337 235.067 173.6 245.123L166.73 249.811C156.32 256.914 143.566 260.202 131.373 257.022Z" fill="#FFD498"/>
<path d="M229.261 198.655C229.261 194.096 232.957 190.4 237.516 190.4C242.076 190.4 245.772 194.096 245.772 198.655V219.568C245.772 224.127 242.076 227.823 237.516 227.823C232.957 227.823 229.261 224.127 229.261 219.568V198.655Z" fill="black"/>
<path d="M145.608 203.058C145.608 198.498 149.304 194.802 153.864 194.802C158.423 194.802 162.119 198.498 162.119 203.058V223.971C162.119 228.53 158.423 232.226 153.864 232.226C149.304 232.226 145.608 228.53 145.608 223.971V203.058Z" fill="black"/>
<ellipse cx="324.388" cy="242.642" rx="35.2223" ry="15.9601" transform="rotate(-5.66822 324.388 242.642)" fill="#FE9A37"/>
<ellipse cx="78.9332" cy="273.462" rx="35.2223" ry="15.9601" transform="rotate(-6.04007 78.9332 273.462)" fill="#FE9A37"/>
</g>
<defs>
<filter id="filter1_i_241_1917" x="324.765" y="401.396" width="95.0586" height="95.6432" filterUnits="userSpaceOnUse" color-interpolation-filters="sRGB">
<feFlood flood-opacity="0" result="BackgroundImageFix"/>
<feBlend mode="normal" in="SourceGraphic" in2="BackgroundImageFix" result="shape"/>
<feColorMatrix in="SourceAlpha" type="matrix" values="0 0 0 0 0 0 0 0 0 0 0 0 0 0 0 0 0 0 127 0" result="hardAlpha"/>
<feOffset dy="3"/>
<feComposite in2="hardAlpha" operator="arithmetic" k2="-1" k3="1"/>
<feColorMatrix type="matrix" values="0 0 0 0 1 0 0 0 0 1 0 0 0 0 1 0 0 0 0.5 0"/>
<feBlend mode="normal" in2="shape" result="effect1_innerShadow_241_1917"/>
</filter>
<filter id="filter2_d_241_1917" x="66.4751" y="392.73" width="298.501" height="209.714" filterUnits="userSpaceOnUse" color-interpolation-filters="sRGB">
<feFlood flood-opacity="0" result="BackgroundImageFix"/>
<feColorMatrix in="SourceAlpha" type="matrix" values="0 0 0 0 0 0 0 0 0 0 0 0 0 0 0 0 0 0 127 0" result="hardAlpha"/>
<feOffset dy="6"/>
<feComposite in2="hardAlpha" operator="out"/>
<feColorMatrix type="matrix" values="0 0 0 0 0.9375 0 0 0 0 0.381573 0 0 0 0 0.180288 0 0 0 0.5 0"/>
<feBlend mode="normal" in2="BackgroundImageFix" result="effect1_dropShadow_241_1917"/>
<feBlend mode="normal" in="SourceGraphic" in2="effect1_dropShadow_241_1917" result="shape"/>
</filter>
<filter id="filter3_di_241_1917" x="-25" y="110.049" width="455.688" height="374.734" filterUnits="userSpaceOnUse" color-interpolation-filters="sRGB">
<feFlood flood-opacity="0" result="BackgroundImageFix"/>
<feColorMatrix in="SourceAlpha" type="matrix" values="0 0 0 0 0 0 0 0 0 0 0 0 0 0 0 0 0 0 127 0" result="hardAlpha"/>
<feOffset dy="6"/>
<feComposite in2="hardAlpha" operator="out"/>
<feColorMatrix type="matrix" values="0 0 0 0 0.9375 0 0 0 0 0.381573 0 0 0 0 0.180288 0 0 0 0.5 0"/>
<feBlend mode="normal" in2="BackgroundImageFix" result="effect1_dropShadow_241_1917"/>
<feBlend mode="normal" in="SourceGraphic" in2="effect1_dropShadow_241_1917" result="shape"/>
<feColorMatrix in="SourceAlpha" type="matrix" values="0 0 0 0 0 0 0 0 0 0 0 0 0 0 0 0 0 0 127 0" result="hardAlpha"/>
<feOffset dy="6"/>
<feComposite in2="hardAlpha" operator="arithmetic" k2="-1" k3="1"/>
<feColorMatrix type="matrix" values="0 0 0 0 1 0 0 0 0 1 0 0 0 0 1 0 0 0 0.5 0"/>
<feBlend mode="normal" in2="shape" result="effect2_innerShadow_241_1917"/>
</filter>
<filter id="filter4_i_241_1917" x="104.882" y="41.8054" width="201.428" height="106.748" filterUnits="userSpaceOnUse" color-interpolation-filters="sRGB">
<feFlood flood-opacity="0" result="BackgroundImageFix"/>
<feBlend mode="normal" in="SourceGraphic" in2="BackgroundImageFix" result="shape"/>
<feColorMatrix in="SourceAlpha" type="matrix" values="0 0 0 0 0 0 0 0 0 0 0 0 0 0 0 0 0 0 127 0" result="hardAlpha"/>
<feOffset dy="3"/>
<feComposite in2="hardAlpha" operator="arithmetic" k2="-1" k3="1"/>
<feColorMatrix type="matrix" values="0 0 0 0 1 0 0 0 0 1 0 0 0 0 1 0 0 0 0.5 0"/>
<feBlend mode="normal" in2="shape" result="effect1_innerShadow_241_1917"/>
</filter>
<filter id="filter5_i_241_1917" x="172.024" y="69.3229" width="61.6392" height="61.639" filterUnits="userSpaceOnUse" color-interpolation-filters="sRGB">
<feFlood flood-opacity="0" result="BackgroundImageFix"/>
<feBlend mode="normal" in="SourceGraphic" in2="BackgroundImageFix" result="shape"/>
<feColorMatrix in="SourceAlpha" type="matrix" values="0 0 0 0 0 0 0 0 0 0 0 0 0 0 0 0 0 0 127 0" result="hardAlpha"/>
<feOffset dy="3"/>
<feComposite in2="hardAlpha" operator="arithmetic" k2="-1" k3="1"/>
<feColorMatrix type="matrix" values="0 0 0 0 1 0 0 0 0 1 0 0 0 0 1 0 0 0 0.5 0"/>
<feBlend mode="normal" in2="shape" result="effect1_innerShadow_241_1917"/>
</filter>
<filter id="filter6_i_241_1917" x="181.931" y="79.2291" width="42.9272" height="42.9272" filterUnits="userSpaceOnUse" color-interpolation-filters="sRGB">
<feFlood flood-opacity="0" result="BackgroundImageFix"/>
<feBlend mode="normal" in="SourceGraphic" in2="BackgroundImageFix" result="shape"/>
<feColorMatrix in="SourceAlpha" type="matrix" values="0 0 0 0 0 0 0 0 0 0 0 0 0 0 0 0 0 0 127 0" result="hardAlpha"/>
<feOffset dy="3"/>
<feComposite in2="hardAlpha" operator="arithmetic" k2="-1" k3="1"/>
<feColorMatrix type="matrix" values="0 0 0 0 1 0 0 0 0 1 0 0 0 0 1 0 0 0 0.5 0"/>
<feBlend mode="normal" in2="shape" result="effect1_innerShadow_241_1917"/>
</filter>
<filter id="filter7_d_241_1917" x="66.6753" y="114.452" width="255.261" height="59.5266" filterUnits="userSpaceOnUse" color-interpolation-filters="sRGB">
<feFlood flood-opacity="0" result="BackgroundImageFix"/>
<feColorMatrix in="SourceAlpha" type="matrix" values="0 0 0 0 0 0 0 0 0 0 0 0 0 0 0 0 0 0 127 0" result="hardAlpha"/>
<feOffset dy="6"/>
<feComposite in2="hardAlpha" operator="out"/>
<feColorMatrix type="matrix" values="0 0 0 0 0.9375 0 0 0 0 0.381573 0 0 0 0 0.180288 0 0 0 0.5 0"/>
<feBlend mode="normal" in2="BackgroundImageFix" result="effect1_dropShadow_241_1917"/>
<feBlend mode="normal" in="SourceGraphic" in2="effect1_dropShadow_241_1917" result="shape"/>
</filter>
<clipPath id="clip0_241_1917">
<rect width="408" height="408" fill="white"/>
</clipPath>
</defs>
</svg>